<?xml version="1.0" encoding="UTF-8"?>
<svg fill="none" viewBox="0 0 121 24" xmlns="http://www.w3.org/2000/svg">
<path d="m2.4716 23.747h4.8958v-11.852h3.2667l0.4326-4.0836h-3.6993l0.00616-2.0441c0-1.0651 0.10074-1.636 1.6286-1.636h2.0422v-4.0848h-3.2672c-3.9243 0-5.305 1.9808-5.305 5.3128v2.4527h-2.4468v4.0837h2.4463v11.851zm43.889-12.488c-1.6628 0-2.0422 0.9129-2.0422 2.0435v0.6353h4.0821v-0.6353c0-1.1306-0.3794-2.0435-2.0399-2.0435zm15.915 0.4119c-0.9984 0-1.7181 0.3275-2.4479 0.661v7.5483c0.699 0.0666 1.0997 0.0666 1.7629 0.0666 2.3965 0 2.725-1.0976 2.725-2.6301v-3.6051c0-1.1317-0.3756-2.0407-2.04-2.0407zm-45.394 8.8037c-0.9313 0-1.3533-0.4645-1.3533-1.3589 0-0.8995 0.4544-1.092 1.4887-1.092h2.1843v1.7905c-0.0705 0.0324-0.1398 0.0647-0.2083 0.0966-0.6392 0.2981-1.2091 0.5638-2.1114 0.5638zm60.875-8.8037c-1.6656 0-2.2426 0.909-2.2426 2.0407v4.1302c0 1.1345 0.577 2.0463 2.2426 2.0463 1.661 0 2.2425-0.9118 2.2425-2.0463v-4.1302c-6e-4 -1.1317-0.5821-2.0407-2.2425-2.0407zm-53.659 12.107h-4.0804l-0.1763-1.0321c-1.8631 1.0321-3.5259 1.1994-4.6228 1.1994-2.9925 0-4.5852-1.9992-4.5852-4.7642 0-3.262 1.8586-4.4262 5.1835-4.4262h3.3842v-0.7053c0-1.6651-0.1908-2.1537-2.7512-2.1537h-4.1863l0.4091-4.0837h4.5758c5.6178 0 6.8496 1.7748 6.8496 6.2705v9.6953zm9.3854-12.114c1.2217 0 1.951 0.0958 4.4901 0.5312v-3.9812c-2.2241-0.50094-3.673-0.63247-4.8975-0.63247-5.2563 0-7.3455 2.7695-7.3455 6.7664v2.8607c0 3.9935 2.0892 6.7579 7.3455 6.7579 1.2245 0 2.6734-0.131 4.8975-0.6297v-3.9834c-2.5391 0.4371-3.2684 0.5345-4.4901 0.5345-2.1944 0-2.8576-0.4864-2.8576-2.3502v-3.5257c0-1.8638 0.6632-2.348 2.8576-2.348zm19.811 5.5446h-8.978v0.3291c0 1.8638 0.6638 2.3502 2.8576 2.3502 1.9723 0 3.1761-0.0974 5.7107-0.5345v3.9834c-2.4445 0.4987-3.7183 0.6297-6.1164 0.6297-5.2569 0-7.3472-2.7644-7.3472-6.7579v-3.271c0-3.4943 1.5508-6.3561 6.9375-6.3561s6.9358 2.8288 6.9358 6.3561v3.271zm8.1296 6.7506c6.6822 0 7.7853-2.8153 7.7853-6.6751h-5e-4v-3.9807c0-3.5267-0.8155-5.7213-5.7102-5.7213-1.2458 0-2.6147 0.19982-3.6725 0.59273v-7.7179l-4.8941 0.81662v22.064c2.6634 0.4097 4.0787 0.6218 6.492 0.6218zm23.474-6.5911c0 3.3297-1.3745 6.5592-7.1255 6.5592-5.7538 0-7.1541-3.2295-7.1541-6.5592v-3.215c0-3.3314 1.4003-6.5615 7.1541-6.5615 5.751 0 7.1255 3.2301 7.1255 6.5615v3.215zm8.5521 6.5592c5.7499 0 7.1262-3.2295 7.1262-6.5592v-3.215c0-3.3314-1.3763-6.5615-7.1262-6.5615-5.7538 0-7.1541 3.2301-7.1541 6.5615v3.215c0 3.3297 1.4003 6.5592 7.1541 6.5592zm23.215-0.1802h-5.305l-4.486-7.4906v7.4906h-4.896v-22.474l4.896-0.81662v14.468l4.486-7.1123h5.305l-4.898 7.7615 4.898 8.1735zm-25.472-10.035c0-1.1317 0.577-2.0407 2.2397-2.0407 1.6605 0 2.2481 0.909 2.2481 2.0407v4.1302c0 1.1345-0.5876 2.0463-2.2481 2.0463-1.6627 0-2.2397-0.9118-2.2397-2.0463v-4.1302zm28.267 7.2399c0.824 0 1.481 0.6722 1.481 1.5118 0 0.8524-0.657 1.5174-1.487 1.5174-0.826 0-1.496-0.665-1.496-1.5174 0-0.8396 0.67-1.5118 1.496-1.5118h6e-3zm-1.214 1.5118c0-0.7052 0.543-1.2767 1.208-1.2767h6e-3c0.67 0 1.206 0.572 1.206 1.2834s-0.536 1.2823-1.206 1.2756c-0.67 0-1.214-0.5642-1.214-1.2823zm0.926 0.8799h-0.269v-1.687l0.014-0.0019c0.136-0.0189 0.268-0.0373 0.463-0.0373 0.255 0 0.422 0.0537 0.525 0.1271 0.099 0.0744 0.152 0.188 0.152 0.3487 0 0.2227-0.147 0.3565-0.328 0.4108v0.0129c0.148 0.0274 0.248 0.1606 0.282 0.4086 0.039 0.2625 0.08 0.3626 0.106 0.4175h-0.281c-0.04-0.0549-0.081-0.2088-0.114-0.431-0.04-0.2144-0.148-0.2949-0.363-0.2949h-0.186v0.7265h-1e-3zm0.195-0.9336h-0.195v-0.5721c0.046-0.0061 0.107-0.0128 0.195-0.0128 0.301 0 0.408 0.1472 0.408 0.2949 0 0.2088-0.188 0.29-0.408 0.29z" clip-rule="evenodd" fill="#fff" fill-rule="evenodd"/>
</svg>
